<?xml version="1.0" encoding="UTF-8"?>
<svg version="1.1" xmlns="http://www.w3.org/2000/svg" width="48" height="48">
<path d="M0 0 C0 2.31 0 4.62 0 7 C-1.2375 7.33 -2.475 7.66 -3.75 8 C-7.42706965 9.33652354 -8.78588428 10.67853123 -10.5 14.1875 C-10.995 15.445625 -11.49 16.70375 -12 18 C-8.04 18 -4.08 18 0 18 C0 23.94 0 29.88 0 36 C-6.27 36 -12.54 36 -19 36 C-19.1627178 31.99834741 -19.28127553 28.00337383 -19.375 24 C-19.42527344 22.87464844 -19.47554687 21.74929687 -19.52734375 20.58984375 C-19.64661233 13.79153473 -19.06941235 9.68269746 -14.53125 4.48828125 C-9.78312335 -0.12660715 -6.37760846 -0.32428518 0 0 Z " fill="#FEFEFE" transform="translate(19,6)"/>
<path d="M0 0 C0 2.31 0 4.62 0 7 C-0.54269531 7.20753906 -1.08539063 7.41507813 -1.64453125 7.62890625 C-5.67354671 9.36392372 -8.26331713 10.57348949 -10 14.75 C-10.33 15.8225 -10.66 16.895 -11 18 C-7.37 18 -3.74 18 0 18 C0 23.94 0 29.88 0 36 C-6.27 36 -12.54 36 -19 36 C-19.020625 33.009375 -19.04125 30.01875 -19.0625 26.9375 C-19.071604 26.00929443 -19.08070801 25.08108887 -19.09008789 24.12475586 C-19.13569043 10.35720247 -19.13569043 10.35720247 -13.60546875 4.51171875 C-9.16117044 0.32694151 -6.09088952 -0.35828762 0 0 Z " fill="#FEFEFE" transform="translate(48,6)"/>
</svg>
